<?xml version="1.0" encoding="UTF-8" standalone="no"?>
<svg
   xmlns:dc="http://purl.org/dc/elements/1.1/"
   xmlns:cc="http://creativecommons.org/ns#"
   xmlns:rdf="http://www.w3.org/1999/02/22-rdf-syntax-ns#"
   xmlns:svg="http://www.w3.org/2000/svg"
   xmlns="http://www.w3.org/2000/svg"
   id="svg8"
   version="1.1"
   viewBox="0 0 200 40"
   height="40mm"
   width="200mm">
  <defs
     id="defs2" />
  <metadata
     id="metadata5">
    <rdf:RDF>
      <cc:Work
         rdf:about="">
        <dc:format>image/svg+xml</dc:format>
        <dc:type
           rdf:resource="http://purl.org/dc/dcmitype/StillImage" />
        <dc:title></dc:title>
      </cc:Work>
    </rdf:RDF>
  </metadata>
  <g
     transform="translate(0,-257)"
     id="layer1">
    <g
       id="flowRoot3713"
       style="font-style:normal;font-weight:normal;font-size:40px;line-height:1.25;font-family:sans-serif;letter-spacing:0px;word-spacing:0px;fill:#000000;fill-opacity:1;stroke:none;stroke-width:7.55905533;stroke-miterlimit:4;stroke-dasharray:none"
       transform="matrix(0.26458333,0,0,0.26458333,-2.314167,175.11265)"
       aria-label="CRY BOY">
      <path
         id="path4678"
         style="letter-spacing:-6px;word-spacing:-8px;fill:none;stroke:#777777;stroke-width:7.55905533;stroke-miterlimit:4;stroke-dasharray:none;stroke-opacity:1"
         d="m 137.80859,322.69543 -4.59375,24.1875 q -15.5625,-4.78125 -31.6875,-4.78125 -26.531246,0 -41.249996,15.1875 -14.625,15.1875 -14.625,35.71875 0,16.03125 10.125,25.59375 10.125,9.46875 27.28125,9.46875 21.093746,0 47.624996,-15.28125 l -4.03125,29.15625 q -23.34375,10.3125 -46.031246,10.3125 -28.5,0 -46.125,-16.59375 -17.625,-16.59375 -17.625,-43.3125 0,-32.71875 23.8125,-53.53125 23.8125,-20.90625 61.593746,-20.90625 16.5,0 35.53125,4.78125 z" />
      <path
         id="path4680"
         style="letter-spacing:-6px;word-spacing:-8px;fill:none;stroke:#777777;stroke-width:7.55905533;stroke-miterlimit:4;stroke-dasharray:none;stroke-opacity:1"
         d="m 158.24609,319.60168 h 44.90625 q 21,0 32.53125,11.71875 11.625,11.625 11.625,27.65625 0,12.9375 -7.59375,22.21875 -7.5,9.28125 -21.5625,12 v 0.375 q 7.875,3.09375 13.78125,15.375 l 20.15625,41.625 h -30.75 l -12.46875,-26.53125 q -8.34375,-17.625 -12.9375,-22.03125 -4.59375,-4.40625 -14.90625,-4.40625 h -5.90625 l -7.3125,52.96875 h -27.84375 z m 24.75,21.9375 -4.96875,35.71875 h 13.78125 q 12.65625,0 19.6875,-5.34375 7.03125,-5.4375 7.03125,-13.6875 0,-7.78125 -5.8125,-12.1875 -5.8125,-4.5 -16.125,-4.5 z" />
      <path
         id="path4682"
         style="letter-spacing:-6px;word-spacing:-8px;fill:none;stroke:#777777;stroke-width:7.55905533;stroke-miterlimit:4;stroke-dasharray:none;stroke-opacity:1"
         d="m 359.33984,319.60168 -49.40625,76.03125 -7.6875,54.9375 h -27.84375 l 7.6875,-54.9375 -27.65625,-76.03125 h 27.84375 l 16.96875,50.53125 30.28125,-50.53125 z" />
      <path
         id="path4684"
         style="stroke:#000000;stroke-opacity:1"
         d="m 408.99609,319.60168 h 41.625 q 21.375,0 32.4375,8.625 11.15625,8.53125 11.15625,23.0625 0,19.40625 -19.03125,29.15625 11.4375,3.46875 17.90625,12.28125 6.46875,8.8125 6.46875,19.78125 0,15 -12.09375,26.53125 -12,11.53125 -32.8125,11.53125 h -64.125 z m 24.9375,21.9375 -4.40625,28.78125 h 18.84375 q 8.90625,0 13.6875,-4.21875 4.875,-4.21875 4.875,-11.34375 0,-13.21875 -18.375,-13.21875 z m -7.3125,50.625 -5.53125,36.5625 h 26.4375 q 11.34375,0 17.25,-5.15625 6,-5.15625 6,-14.0625 0,-8.25 -6.5625,-12.75 -6.5625,-4.59375 -17.8125,-4.59375 z" />
      <path
         id="path4686"
         style="stroke:#000000;stroke-opacity:1"
         d="m 586.46484,317.91418 q 28.5,0 46.5,16.6875 18,16.6875 18,43.03125 0,33.09375 -21.1875,53.90625 -21.1875,20.71875 -54.28125,20.71875 -28.6875,0 -47.34375,-17.15625 -18.65625,-17.15625 -18.65625,-43.6875 0,-31.59375 21.84375,-52.5 21.9375,-21 55.125,-21 z m -10.78125,110.15625 q 19.40625,0 32.90625,-14.15625 13.59375,-14.15625 13.59375,-34.40625 0,-16.21875 -10.6875,-26.8125 -10.59375,-10.59375 -26.90625,-10.59375 -18.9375,0 -32.625,14.15625 -13.6875,14.15625 -13.6875,33.84375 0,16.78125 10.40625,27.375 10.5,10.59375 27,10.59375 z" />
      <path
         id="path4688"
         style="stroke:#000000;stroke-opacity:1"
         d="m 756.52734,319.60168 -49.40625,76.03125 -7.6875,54.9375 h -27.84375 l 7.6875,-54.9375 -27.65625,-76.03125 h 27.84375 l 16.96875,50.53125 30.28125,-50.53125 z" />
    </g>
    <flowRoot
       transform="matrix(0.26458333,0,0,0.26458333,0,-3)"
       style="font-style:normal;font-weight:normal;font-size:40px;line-height:1.25;font-family:sans-serif;letter-spacing:0px;word-spacing:0px;fill:#000000;fill-opacity:1;stroke:none"
       id="flowRoot3721"
       xml:space="preserve"><flowRegion
         id="flowRegion3723"><rect
           y="293.85828"
           x="734.28571"
           height="65.714287"
           width="140"
           id="rect3725" /></flowRegion><flowPara
         id="flowPara3727"></flowPara></flowRoot>    <flowRoot
       transform="matrix(0.26458333,0,0,0.26458333,0,-3)"
       style="font-style:normal;font-weight:normal;font-size:40px;line-height:1.25;font-family:sans-serif;letter-spacing:0px;word-spacing:0px;fill:#000000;fill-opacity:1;stroke:none"
       id="flowRoot3729"
       xml:space="preserve"><flowRegion
         id="flowRegion3731"><rect
           y="468.14398"
           x="308.57144"
           height="68.571426"
           width="142.85715"
           id="rect3733" /></flowRegion><flowPara
         id="flowPara3735"></flowPara></flowRoot>  </g>
</svg>
